<svg width="70" height="79" viewBox="0 0 70 79" fill="none" xmlns="http://www.w3.org/2000/svg">
<path d="M67.764 18.0258L38.0637 0.82338C37.1336 0.28385 36.0804 0 35.0085 0C33.9366 0 32.8834 0.28385 31.9534 0.82338L3.55647 17.2596C2.47617 17.8855 1.57834 18.7894 0.953821 19.8796C0.329303 20.9698 0.000263152 22.2078 0 23.4681V55.3674C0.00149122 56.7288 0.357901 58.0658 1.0332 59.2431C1.70851 60.4203 2.67876 61.3962 3.8459 62.0721L31.3877 78.0274C32.4869 78.6647 33.7315 79 34.9981 79C36.2647 79 37.5093 78.6647 38.6085 78.0274L67.4272 61.3403C68.2072 60.8888 68.8557 60.237 69.3074 59.4507C69.7591 58.6643 69.998 57.7713 70 56.8615V21.928C70 21.1357 69.7932 20.3575 69.4006 19.6722C69.0079 18.9869 68.4433 18.4189 67.764 18.0258ZM64.0864 57.488L56.8222 56.147C55.8369 55.9648 54.8197 56.1412 53.9505 56.6451L38.6482 65.4992C37.5491 66.1346 36.3054 66.4689 35.0397 66.4689C33.7741 66.4689 32.5303 66.1346 31.4312 65.4992L14.5229 55.7122C13.3551 55.0369 12.3843 54.0611 11.7086 52.8838C11.0329 51.7064 10.6764 50.3692 10.6751 49.0074V29.443C10.6752 28.1821 11.0044 26.9437 11.6292 25.853C12.2541 24.7624 13.1525 23.8584 14.2334 23.2325L31.9855 12.9609C32.9156 12.4224 33.9684 12.1392 35.0397 12.1392C36.1111 12.1392 37.1639 12.4224 38.0939 12.9609L57.1664 23.9969C57.846 24.3903 58.4109 24.9586 58.8038 25.6442C59.1968 26.3297 59.404 27.1082 59.4044 27.9009V46.4577C59.404 48.1323 60.0362 49.7436 61.1713 50.9614L65.2498 55.329C65.4334 55.5278 65.5504 55.7801 65.5842 56.05C65.6179 56.32 65.5667 56.5939 65.4378 56.8326C65.3089 57.0714 65.1089 57.2629 64.8662 57.3799C64.6236 57.4969 64.3507 57.5333 64.0864 57.4841V57.488Z" fill="#ED1C24"/>
</svg>
